<svg xmlns="http://www.w3.org/2000/svg" viewBox="0 0 100 100" width="100" height="100">
  <!-- Fundo -->
  <rect width="100" height="100" fill="#dc2626" rx="20"/>
  
  <!-- Engrenagem -->
  <g transform="translate(50, 50)">
    <!-- Dentes da engrenagem -->
    <path d="M 0,-35 L 4,-28 L 8,-35 L 12,-28 L 16,-35 L 20,-28 L 24,-35 L 28,-28 A 35 35 0 0 1 28,28 L 24,35 L 28,28 L 20,28 L 16,35 L 12,28 L 8,35 L 4,28 L 0,35 A 35 35 0 0 1 -28,28 L -24,35 L -28,28 L -20,28 L -16,35 L -12,28 L -8,35 L -4,28 L 0,35 A 35 35 0 0 1 0,-35" 
          fill="#ffffff" opacity="0.9"/>
    
    <!-- Círculo interno -->
    <circle cx="0" cy="0" r="15" fill="#dc2626"/>
    
    <!-- Letra C -->
    <text x="0" y="8" font-family="Arial, sans-serif" font-size="20" font-weight="bold" fill="#ffffff" text-anchor="middle">C</text>
  </g>
</svg>

